<?xml version="1.0" encoding="utf-8"?>
<svg version="1.1" xmlns="http://www.w3.org/2000/svg" 
     viewBox="0 0 415.1 374" xml:space="preserve">
<defs>
    <linearGradient id="pixelGrad" x1="0%" y1="0%" x2="100%" y2="100%">
        <stop offset="0%" style="stop-color:#ffcc80;stop-opacity:1" />
        <stop offset="100%" style="stop-color:#e65100;stop-opacity:1" />
    </linearGradient>
    <linearGradient id="driveGrad" x1="0%" y1="0%" x2="100%" y2="100%">
        <stop offset="0%" style="stop-color:#455a64;stop-opacity:1" />
        <stop offset="100%" style="stop-color:#1a2327;stop-opacity:1" />
    </linearGradient>
</defs>
<g transform="translate(0.000000,1024.000000) scale(0.100000,-0.100000)">
    <path fill="url(#driveGrad)" d="M113,10210c-39-22-61-44-83-83l-30-52V8375c0-1623,1-1702,19-1740c23-51,89-111,138-124c53-15,2450-15,2490,0
		c56,21,102,61,128,112c23,47,25,62,25,183v133l43,3l42,3l3,123l3,122h-176h-175v135v134l128,3l127,3l3,248l2,247h-105h-105v130v130
		h105h105v160v161l-126-3l-126-3l-27-71c-15-39-47-106-69-149c-42-76-42-78-42-181v-104h-80h-81l-92-75c-111-90-260-173-382-214
		c-90-30-282-67-293-56c-3,3,11,29,30,57c130,192,351,549,374,604c22,52,18,110-8,128c-40,28-80,20-161-33c-94-62-407-301-744-568
		l-93-74l-69,40c-234,132-423,349-517,594c-172,442-70,932,263,1263c244,242,562,367,893,351c253-12,473-92,680-248l80-60v-114v-114
		l98-3l97-3l67-135c57-114,71-135,90-135h23l3,243l2,242h105h105v85v85h-175h-174l-3-72l-3-73l-117-3l-118-3v91v90h105h105v160v160
		h-80h-79l-3-82l-3-83h-95h-95l-3,83l-3,82h-947H165L113,10210z M289,10073c72-60,17-182-73-159c-42,10-66,41-66,84c0,21,6,45,13,54
		C194,10092,254,10101,289,10073z M1665,8219c8-25,9-23-209-354c-383-581-367-558-416-583c-154-80-333,89-266,249
		c18,44,44,67,261,241c99,79,273,219,387,311C1628,8249,1652,8262,1665,8219z M581,7743l88-88l-26-60c-40-89-39-197,1-280c35-70,94-130,162-165c43-22,62-25,149-25c90,0,106,3,156,29c68,34,67,34,169-69l75-75
		l3-96c3-60-1-106-8-125c-25-59-22-59-402-59H600l-52,48c-79,73-238,231-280,280l-38,43v335v336l29,29c29,28,32,29,132,29h102
		L581,7743z M295,6805
		c29-28,34-88,10-122c-30-42-108-39-142,6c-16,21-16,83,0,103C197,6836,259,6842,295,6805z M2609,6815c32-16,41-33,41-78
		c-1-36-15-58-47-75c-33-18-59-14-92,14c-25,20-31,34-31,64s6,44,31,64C2546,6834,2569,6836,2609,6815z M1272,9231c-107-40-179-106-229-210c-23-48-27-69-27-152c-1-90,1-99,37-171
		c43-87,98-142,186-185c50-25,67-28,161-28s111,3,161,28c128,62,212,181,225,318c16,159-82,323-232,391
		C1484,9253,1345,9258,1272,9231z"/>
    <path fill="url(#pixelGrad)" d="M2530,7710v-130h-130h-130v130v130h130h130V7710z M2090,7360v-90h-90h-90v90v90h90h90V7360z M2360,7000v-81l-72,3l-73,3l-3,78l-3,77h76h75V7000z M3070,9735v-125h120h120v125
		v125h-120h-120V9735z M1670,9655v-75h75h75v75v75h-75h-75V9655z M2700,9490v-120h120h120v120v120h-120h-120V9490z M3450,9425v-126
		l118,3l117,3l3,70c2,39,0,94-3,123l-6,52h-115h-114V9425z M1974,9384c3-26,6-69,6-95v-49h90h90v95v95h-96h-97L1974,9384z M2960,9085v-175h175h175v175v175h-175h-175V9085z M2250,9075v-105h110h110v105v105h-110h-110V9075z M3456,9101c-3-5-3-50,1-100l6-92l91,3l91,3v95
		v95l-92,3C3503,9109,3459,9107,3456,9101z M2590,8870v-110h105h105v110v110h-105h-105V8870z M1954,8936c-3-7-4-38-2-67l3-54l68-3
		l67-3v71v70h-65C1979,8950,1958,8946,1954,8936z M3320,8579v-150l143,3l142,3l3,148l3,147h-146h-145V8579z M3844,8717
		c-2-7-3-74-2-148l3-134l143-3c111-3,143,0,146,10c3,7,7,75,10,151l7,137h-151C3886,8730,3848,8727,3844,8717z M2140,8515v-125h120
		h120v125v125h-120h-120V8515z M2960,8530v-101l93,3l92,3v95v95l-92,3l-93,3V8530z M2960,8125v-175h175h175v123c0,67,3,146,6,175
		l7,52h-182h-181V8125z M3456,7822c-3-5-4-36-1-68c2-32,4-74,4-92l1-33l93,3l92,3v95v95l-92,3C3503,7829,3459,7827,3456,7822z M2967,7763c-4-3-7-84-7-180v-173h175h175v180v180h-168C3049,7770,2970,7767,2967,7763z M3447,7434c-9-9-9-136-1-198l7-47l116,3
		l116,3v120v120l-116,3C3506,7439,3451,7437,3447,7434z M3070,7070v-120h120h120v120v120h-120h-120V7070z"/>
</g>
</svg>