<?xml version="1.0" encoding="utf-8"?>
<!-- Generator: Adobe Illustrator 28.4.1, SVG Export Plug-In . SVG Version: 6.00 Build 0)  -->
<svg version="1.1" id="Layer_1" xmlns="http://www.w3.org/2000/svg" xmlns:xlink="http://www.w3.org/1999/xlink" x="0px" y="0px"
	 viewBox="0 0 777.2 777.2" style="enable-background:new 0 0 777.2 777.2;" xml:space="preserve">
<g transform="translate(0.000000,1024.000000) scale(0.100000,-0.100000)">
	<path d="M5538,9011c-128-20-253-59-381-119c-435-205-780-607-1025-1194c-40-97-119-333-119-357c0-12,39-14,231-12l230,3l28,71
		c40,104,143,295,208,387c75,106,227,264,328,339c181,136,370,200,585,201c386,0,739-239,1001-677c140-235,248-583,280-899
		c17-179,7-569-20-726c-124-718-547-1279-1056-1397c-115-27-321-25-428,4c-182,50-349,152-507,311c-134,135-220,257-317,449l-77,152
		h-247h-247l14-52c40-154,157-441,245-601c286-523,685-881,1119-1006c164-46,223-55,395-55c129,1,179,5,256,23
		c290,66,531,204,770,441c182,181,277,307,407,545c197,359,310,749,368,1265c37,341-2,840-95,1203c-165,638-521,1184-966,1479
		C6228,8981,5869,9062,5538,9011z M5850,8847c206-28,491-143,632-256c2-2-164-330-174-342c-1-1-33,19-71,44
		c-150,102-313,162-496,185c-54,6-98,14-98,16c0,3,9,39,19,81c11,43,27,115,36,162s19,93,21,103C5725,8860,5742,8861,5850,8847z
		 M7098,7814c87-176,143-328,196-537c45-172,82-372,71-381c-6-5-223-52-303-66c-26-5-26-4-37,82c-29,220-123,517-235,742l-62,126
		l24,16c14,9,68,50,121,92c117,93,132,101,143,86C7021,7967,7057,7895,7098,7814z M7133,6052c74-19,233-64,236-68c7-7-30-202-60-317
		c-53-202-100-333-185-522l-30-68l-142,98c-78,53-144,103-147,110c-2,7,14,53,37,101c76,160,150,420,186,654c5,30,10,37,23,33
		C7060,6070,7097,6061,7133,6052z M6486,4645c41-73,85-153,98-176l24-44l-45-39c-61-53-210-154-284-191c-143-72-322-128-463-144
		c-61-6-63-6-73,21c-8,21-100,370-100,380c0,1,39,5,88,8c48,4,123,16,167,27c140,35,347,149,468,256c20,19,39,34,41,34
		S6445,4717,6486,4645z M306,8267c-39-22-61-44-83-83l-30-52V6432c0-1623,1-1702,19-1740c23-51,89-111,138-124c53-15,2450-15,2490,0
		c56,21,102,61,128,112c23,47,25,62,25,183v133l43,3l42,3l3,123l3,122h-176h-175v135v134l128,3l127,3l3,248l2,247h-105h-105v130v130
		h105h105v160v161l-126-3l-126-3l-27-71c-15-39-47-106-69-149c-42-76-42-78-42-181v-104h-80h-81l-92-75c-111-90-260-173-382-214
		c-90-30-282-67-293-56c-3,3,11,29,30,57c130,192,351,549,374,604c22,52,18,110-8,128c-40,28-80,20-161-33c-94-62-407-301-744-568
		l-93-74l-69,40c-234,132-423,349-517,594c-172,442-70,932,263,1263c244,242,562,367,893,351c253-12,473-92,680-248l80-60v-114v-114
		l98-3l97-3l67-135c57-114,71-135,90-135h23l3,243l2,242h105h105v85v85h-175h-174l-3-72l-3-73l-117-3l-118-3v91v90h105h105v160v160
		h-80h-79l-3-82l-3-83h-95h-95l-3,83l-3,82h-947H358L306,8267z M482,8130c72-60,17-182-73-159c-42,10-66,41-66,84c0,21,6,45,13,54
		C387,8149,447,8158,482,8130z M1858,6276c8-25,9-23-209-354c-383-581-367-558-416-583c-154-80-333,89-266,249c18,44,44,67,261,241
		c99,79,273,219,387,311C1821,6306,1845,6319,1858,6276z M2723,5767v-130h-130h-130v130v130h130h130V5767z M774,5800l88-88l-26-60
		c-40-89-39-197,1-280c35-70,94-130,162-165c43-22,62-25,149-25c90,0,106,3,156,29c68,34,67,34,169-69l75-75l3-96c3-60-1-106-8-125
		c-25-59-22-59-402-59H793l-52,48c-79,73-238,231-280,280l-38,43v335v336l29,29c29,28,32,29,132,29h102L774,5800z M2283,5417v-90
		h-90h-90v90v90h90h90V5417z M2553,5057v-81l-72,3l-73,3l-3,78l-3,77h76h75V5057z M488,4862c29-28,34-88,10-122c-30-42-108-39-142,6
		c-16,21-16,83,0,103C390,4893,452,4899,488,4862z M2802,4872c32-16,41-33,41-78c-1-36-15-58-47-75c-33-18-59-14-92,14
		c-25,20-31,34-31,64s6,44,31,64C2739,4891,2762,4893,2802,4872z M5441,8066c-101-13-231-65-327-130c-101-67-236-203-308-310
		c-51-75-153-267-153-288c0-8,69-11,230-11h230l-30-60l-30-60h-229h-229l-31-114c-18-63-35-131-38-150l-6-36h222h221l-6-47
		c-3-27-7-54-10-60c-2-10-56-13-224-13c-201,0-221-2-228-17c-13-32-8-502,7-595l13-88h218h218l7-52c4-29,7-54,6-56c0-2-96-3-211-2
		c-176,1-210-2-210-14c0-19,44-169,70-239l21-57l202-1c111-1,212-4,225-7c15-5,31-25,47-59l24-53h-219c-125,0-220-4-220-9
		c0-12,57-113,112-198c134-206,364-385,568-440c87-23,252-23,340,1c455,123,789,610,881,1286c18,135,16,457-5,605
		c-46,323-138,582-290,809C6072,7942,5762,8110,5441,8066z M5877,7659c24-11,78-52,119-92c206-195,331-525,368-970
		c20-242-14-507-98-765c-84-257-276-521-420-575c-215-81-492,128-652,494c-149,340-182,788-86,1166c58,232,158,434,290,588
		c53,61,159,133,235,160C5711,7692,5806,7690,5877,7659z M3263,7792v-125h120h120v125v125h-120h-120V7792z M1863,7712v-75h75h75v75
		v75h-75h-75V7712z M2893,7547v-120h120h120v120v120h-120h-120V7547z M3643,7482v-126l118,3l117,3l3,70c2,39,0,94-3,123l-6,52h-115
		h-114V7482z M2167,7441c3-26,6-69,6-95v-49h90h90v95v95h-96h-97L2167,7441z M3153,7142v-175h175h175v175v175h-175h-175V7142z
		 M1465,7288c-107-40-179-106-229-210c-23-48-27-69-27-152c-1-90,1-99,37-171c43-87,98-142,186-185c50-25,67-28,161-28s111,3,161,28
		c128,62,212,181,225,318c16,159-82,323-232,391C1677,7310,1538,7315,1465,7288z M2443,7132v-105h110h110v105v105h-110h-110V7132z
		 M3974,7185c-7-19-26-124-46-250l-4-28h224c220,0,225,0,225,21c0,19,43,221,56,262c5,16-10,17-221,17
		C3983,7207,3982,7207,3974,7185z M3649,7158c-3-5-3-50,1-100l6-92l91,3l91,3v95v95l-92,3C3696,7166,3652,7164,3649,7158z
		 M2783,6927v-110h105h105v110v110h-105h-105V6927z M2147,6993c-3-7-4-38-2-67l3-54l68-3l67-3v71v70h-65
		C2172,7007,2151,7003,2147,6993z M3513,6636v-150l143,3l142,3l3,148l3,147h-146h-145V6636z M4037,6774c-2-7-3-74-2-148l3-134l143-3
		c111-3,143,0,146,10c3,7,7,75,10,151l7,137h-151C4079,6787,4041,6784,4037,6774z M2333,6572v-125h120h120v125v125h-120h-120V6572z
		 M3153,6587v-101l93,3l92,3v95v95l-92,3l-93,3V6587z M3755,6230l3-138l290-3c159-1,295,0,301,2c9,3,10,16,4,43c-4,21-11,82-15,136
		l-7,97h-289h-290L3755,6230z M3153,6182v-175h175h175v123c0,67,3,146,6,175l7,52h-182h-181V6182z M3928,5968c-5-10,11-123,36-248
		l10-53h246c213,0,244,2,239,15c-12,33-56,184-68,235l-13,55l-222,3C4019,5976,3932,5974,3928,5968z M3649,5879c-3-5-4-36-1-68
		c2-32,4-74,4-92l1-33l93,3l92,3v95v95l-92,3C3696,5886,3652,5884,3649,5879z M3160,5820c-4-3-7-84-7-180v-173h175h175v180v180h-168
		C3242,5827,3163,5824,3160,5820z M3640,5491c-9-9-9-136-1-198l7-47l116,3l116,3v120v120l-116,3C3699,5496,3644,5494,3640,5491z
		 M3263,5127v-120h120h120v120v120h-120h-120V5127z"/>
</g>
</svg>
